<svg width="18" height="18" viewBox="0 0 18 18" fill="none" xmlns="http://www.w3.org/2000/svg">
<path d="M14.25 8.25V15.3C14.25 15.4193 14.2026 15.5338 14.1182 15.6182C14.0338 15.7026 13.9193 15.75 13.8 15.75H4.2C4.08065 15.75 3.96619 15.7026 3.8818 15.6182C3.79741 15.5338 3.75 15.4193 3.75 15.3V8.25M7.5 12.75V8.25M10.5 12.75V8.25M15.75 5.25H12M2.25 5.25H6M6 5.25V2.7C6 2.58065 6.04741 2.46619 6.1318 2.3818C6.21619 2.29741 6.33065 2.25 6.45 2.25H11.55C11.6693 2.25 11.7838 2.29741 11.8682 2.3818C11.9526 2.46619 12 2.58065 12 2.7V5.25M6 5.25H12" stroke="#D08B66" stroke-opacity="0.6" stroke-width="1.125" stroke-linecap="round" stroke-linejoin="round"/>
</svg>
