<svg width="47" height="47" viewBox="0 0 47 47" fill="none" xmlns="http://www.w3.org/2000/svg">
<path d="M0 22.795C0 9.69669 10.2607 0 23.5 0C36.7393 0 47 9.69669 47 22.795C47 35.8933 36.7393 45.59 23.5 45.59C21.1206 45.59 18.8411 45.2757 16.6968 44.6882C16.2809 44.5725 15.838 44.6036 15.4424 44.7763L10.7777 46.8384C10.496 46.9627 10.188 47.0159 9.88092 46.9933C9.57383 46.9707 9.27699 46.873 9.01649 46.7088C8.756 46.5446 8.53982 46.3189 8.38695 46.0516C8.23409 45.7843 8.14922 45.4836 8.13981 45.1758L8.01056 40.9958C8.00163 40.7413 7.94104 40.4914 7.83247 40.2611C7.72389 40.0308 7.56961 39.825 7.379 39.6562C2.80825 35.5672 0 29.6453 0 22.795ZM16.2914 18.5092L9.38825 29.4602C8.72731 30.5118 10.0169 31.6956 11.0068 30.9466L18.424 25.3183C18.668 25.133 18.9656 25.0322 19.272 25.0312C19.5783 25.0301 19.8766 25.1288 20.1219 25.3124L25.6121 29.4308C26.0016 29.7229 26.4474 29.9312 26.9215 30.0424C27.3955 30.1537 27.8874 30.1655 28.3663 30.0772C28.8451 29.9889 29.3004 29.8023 29.7036 29.5293C30.1067 29.2563 30.4489 28.9027 30.7086 28.4908L37.6118 17.5398C38.2756 16.4882 36.9831 15.3044 35.9932 16.0534L28.576 21.6817C28.332 21.867 28.0344 21.9678 27.728 21.9688C27.4217 21.9699 27.1234 21.8712 26.8781 21.6876L21.3879 17.5662C20.9984 17.2741 20.5526 17.0659 20.0785 16.9546C19.6045 16.8434 19.1126 16.8315 18.6337 16.9198C18.1549 17.0082 17.6996 17.1947 17.2964 17.4678C16.8933 17.7408 16.5511 18.0944 16.2914 18.5063V18.5092Z" fill="#C5977E"/>
</svg>
