<?xml version="1.0" standalone="no"?>
<!DOCTYPE svg PUBLIC "-//W3C//DTD SVG 20010904//EN"
 "http://www.w3.org/TR/2001/REC-SVG-20010904/DTD/svg10.dtd">
<svg version="1.0" xmlns="http://www.w3.org/2000/svg"
 width="1008.000000pt" height="1008.000000pt" viewBox="0 0 1008.000000 1008.000000"
 preserveAspectRatio="xMidYMid meet">
<metadata>
Created by potrace 1.14, written by Peter Selinger 2001-2017
</metadata>
<g transform="translate(0.000000,1008.000000) scale(0.100000,-0.100000)"
fill="#000000" stroke="none">
<path d="M3512 7667 c-102 -51 -170 -106 -198 -158 -7 -15 -10 -29 -7 -33 4
-3 1 -6 -5 -6 -7 0 -13 12 -13 28 -3 40 -7 144 -8 170 -1 12 -7 25 -14 28 -12
4 -64 -15 -97 -36 -8 -5 -41 -19 -72 -31 -95 -34 -170 -90 -220 -166 -56 -85
-79 -126 -99 -183 -13 -39 -21 -46 -52 -53 -39 -9 -87 -57 -87 -85 0 -9 13
-28 28 -42 16 -14 49 -56 73 -95 43 -68 44 -72 44 -152 0 -73 3 -84 24 -107
14 -15 38 -30 55 -34 22 -6 36 -20 56 -57 76 -147 181 -254 312 -318 31 -15
59 -34 62 -42 3 -10 -25 -46 -80 -102 -47 -48 -94 -99 -105 -114 -17 -25 -18
-29 -4 -43 14 -14 19 -14 53 2 82 37 174 132 185 192 10 50 18 62 34 49 7 -7
23 -25 34 -41 20 -28 21 -30 4 -81 -10 -29 -18 -59 -20 -67 -2 -14 12 -29 27
-30 10 0 46 82 53 120 10 57 27 110 37 110 17 0 29 -56 25 -117 -2 -34 -1 -66
2 -72 10 -15 31 2 37 30 8 40 22 148 23 182 1 21 34 23 50 3 16 -19 19 -62 9
-110 -15 -66 -67 -192 -93 -222 -14 -16 -25 -32 -25 -36 0 -9 -148 -200 -166
-214 -14 -11 -136 -203 -169 -266 -11 -21 -23 -38 -27 -38 -5 0 -8 -6 -8 -14
0 -7 -8 -24 -19 -37 -10 -13 -35 -55 -56 -94 -21 -38 -49 -88 -61 -110 -25
-43 -218 -427 -219 -435 -1 -3 -13 -30 -27 -60 -106 -227 -271 -689 -303 -850
-2 -8 -4 -16 -5 -17 -3 -3 -2 -2 -15 -58 -5 -22 -9 -42 -10 -45 -1 -5 -6 -29
-20 -100 -14 -70 -16 -187 -3 -224 26 -77 96 -98 184 -54 49 23 184 146 184
166 0 6 4 12 8 14 18 7 50 65 43 76 -8 13 -41 6 -41 -7 0 -12 -72 -85 -107
-109 -44 -31 -88 -29 -110 5 -31 47 -20 224 27 433 6 25 13 56 15 70 11 62 73
278 117 405 26 77 50 148 52 157 3 10 11 32 19 50 8 18 32 76 52 128 65 163
177 398 235 495 16 28 33 57 37 65 13 31 176 275 184 278 5 2 9 8 9 13 0 6 24
40 53 77 29 37 84 114 122 172 38 58 71 107 74 110 7 6 76 150 76 159 0 3 3
11 6 16 8 13 28 101 33 144 5 49 -12 90 -46 111 -25 15 -27 19 -15 32 18 17
91 17 153 -1 23 -6 60 -27 83 -47 52 -46 175 -207 196 -256 8 -21 22 -38 29
-38 13 0 29 28 31 55 1 6 4 28 8 50 15 88 16 139 3 169 -8 17 -21 48 -30 68
-22 50 -90 105 -150 123 -68 20 -169 18 -236 -5 -30 -10 -56 -17 -59 -15 -2 2
14 26 35 53 25 31 61 62 99 82 110 60 132 83 160 165 3 11 8 49 11 85 2 36 6
87 9 113 5 46 16 192 19 249 2 42 28 61 83 62 26 0 65 -3 86 -7 45 -8 59 10
33 46 -9 12 -32 45 -51 74 -60 91 -152 145 -267 158 -33 4 -180 -23 -193 -36
-5 -5 -15 -9 -22 -9 -11 0 -13 20 -11 93 3 92 3 92 -22 94 -14 1 -71 -21 -128
-50z m109 -122 c-3 -108 -1 -125 12 -125 18 0 31 17 32 40 0 8 20 25 45 37
142 71 305 36 397 -85 44 -58 42 -67 -15 -67 -56 -1 -107 -22 -120 -50 -5 -11
-10 -47 -11 -80 -2 -33 -4 -73 -6 -90 -9 -94 -17 -186 -19 -230 -6 -95 -17
-126 -61 -171 -24 -23 -57 -45 -75 -49 -33 -7 -123 -87 -153 -135 -9 -14 -18
-45 -22 -70 -3 -25 -13 -52 -22 -60 -14 -13 -15 -13 -7 0 5 8 10 26 12 39 2
13 17 63 34 110 48 132 107 370 108 431 0 63 -27 165 -61 230 -13 24 -53 75
-89 112 -58 61 -70 68 -105 69 -60 2 -124 0 -151 -5 -23 -5 -33 7 -15 18 4 3
11 23 15 45 9 56 76 122 163 161 37 16 75 34 83 39 32 21 35 11 31 -114z
m-380 48 c1 -63 11 -137 25 -186 5 -14 0 -16 -28 -12 -57 8 -95 22 -142 54
-48 33 -75 38 -94 19 -28 -28 -5 -98 76 -230 43 -70 43 -82 1 -50 -45 33 -84
44 -173 48 -49 2 -91 6 -94 8 -13 13 98 208 144 253 36 36 113 81 168 99 28 9
60 23 71 30 35 25 45 17 46 -33z m-138 -198 c50 -32 117 -44 221 -39 55 2 108
4 116 4 8 0 29 0 46 0 55 1 161 -124 199 -235 32 -92 31 -157 -4 -295 -30
-118 -42 -158 -61 -205 -15 -36 -49 -149 -54 -180 -5 -26 -29 -56 -45 -55 -3
1 -19 17 -34 38 -54 72 -174 190 -243 238 -86 62 -141 77 -276 78 -129 1 -140
11 -142 123 -1 75 -3 81 -49 154 -26 42 -58 88 -71 102 l-24 26 24 22 c22 21
34 22 151 23 l128 1 65 -37 c36 -20 89 -46 118 -57 46 -18 53 -19 59 -6 3 10
-6 27 -25 44 -26 25 -50 58 -100 136 -22 35 -72 143 -72 155 0 9 8 7 25 -4 14
-9 35 -23 48 -31z m35 -715 c63 -28 137 -84 216 -165 82 -83 121 -133 112
-142 -8 -8 -130 -9 -183 0 -65 10 -118 42 -191 115 -59 59 -142 177 -142 202
0 10 59 16 110 12 19 -2 54 -12 78 -22z m827 -207 c55 -18 91 -54 124 -122 27
-56 33 -123 16 -189 l-6 -25 -22 31 c-12 16 -29 40 -37 52 -54 77 -145 172
-186 192 -32 17 -72 28 -124 34 -18 3 -35 6 -37 8 -2 2 18 10 44 19 58 19 171
20 228 0z m-402 -133 c-4 -16 -8 -18 -19 -9 -16 13 -10 29 11 29 8 0 11 -7 8
-20z m-94 -37 c-16 -43 -19 -44 -45 -14 -13 16 -24 30 -24 32 0 2 18 5 39 6
39 1 39 0 30 -24z m-219 -148 c-24 -25 -48 -45 -54 -45 -5 0 13 22 40 49 27
27 51 47 53 45 3 -3 -15 -25 -39 -49z"/>
<path d="M1921 5855 c-51 -19 -119 -49 -151 -68 -57 -34 -59 -35 -206 -40
-153 -6 -229 -13 -245 -23 -5 -3 -21 -8 -36 -10 -52 -10 -149 -46 -228 -86
-212 -106 -382 -277 -458 -460 -12 -29 -13 -38 -3 -41 8 -3 26 19 46 56 158
297 478 481 828 476 56 -1 102 -4 102 -6 0 -3 -27 -34 -60 -70 -33 -35 -68
-76 -77 -91 -10 -15 -20 -29 -24 -32 -14 -11 -79 -120 -123 -207 -49 -96 -123
-289 -156 -403 -10 -36 -34 -119 -54 -185 -20 -66 -38 -127 -41 -135 -10 -37
-66 -193 -98 -275 -128 -324 -257 -462 -454 -491 -123 -18 -179 -4 -265 67
-34 28 -56 39 -80 39 -40 0 -138 -46 -138 -65 0 -7 17 -27 38 -44 55 -45 172
-131 178 -131 3 0 24 -13 47 -29 169 -116 505 -246 690 -267 23 -3 49 -7 57
-9 53 -16 343 -23 467 -11 410 39 677 220 764 519 27 90 34 275 15 362 -16 76
-54 170 -97 241 -54 89 -182 200 -274 239 l-20 8 20 4 c125 22 211 55 279 106
195 150 260 420 151 628 -51 99 -130 173 -244 229 -89 44 -137 61 -213 75 -14
3 -36 9 -48 13 -21 8 -18 11 31 38 30 17 81 41 114 53 75 28 88 35 92 47 6 19
-33 12 -126 -21z m-121 -245 c76 -24 148 -61 206 -104 39 -29 139 -146 139
-163 1 -4 6 -17 12 -28 34 -63 50 -201 32 -272 -28 -109 -113 -219 -205 -266
-80 -41 -186 -50 -261 -23 -51 18 -95 12 -150 -20 -61 -35 -57 -56 15 -78 296
-94 467 -283 507 -565 11 -77 7 -205 -9 -263 -19 -69 -66 -178 -78 -178 -4 0
-8 -6 -8 -13 0 -28 -136 -143 -220 -185 -47 -23 -94 -45 -105 -47 -11 -2 -38
-9 -60 -15 -137 -34 -368 -32 -549 6 -70 14 -256 69 -286 84 -8 4 -62 30 -120
58 -105 49 -242 131 -255 151 -4 7 4 11 22 11 49 0 156 30 218 60 102 50 217
159 287 273 18 29 38 62 45 73 39 62 166 339 178 389 2 6 21 64 43 130 22 66
50 156 62 200 90 336 193 565 327 729 26 32 53 65 58 73 12 18 63 12 155 -17z"/>
<path d="M2808 5844 c-9 -8 37 -81 124 -196 40 -53 98 -145 128 -205 50 -99
55 -105 60 -78 3 17 5 78 4 136 -3 211 -59 292 -229 327 -28 6 -57 13 -66 17
-8 3 -18 3 -21 -1z m160 -82 c55 -25 87 -65 100 -123 24 -107 20 -184 -6 -111
-5 16 -39 66 -74 113 -35 46 -74 99 -87 117 l-23 33 29 -7 c15 -3 43 -13 61
-22z"/>
<path d="M8190 4723 c-145 -146 -175 -189 -167 -240 11 -63 22 -60 74 22 67
106 141 207 197 265 25 26 46 50 46 53 0 3 -7 8 -16 11 -12 5 -50 -27 -134
-111z"/>
<path d="M10015 4310 c-37 -23 -84 -30 -235 -35 -134 -4 -179 -19 -253 -85
-47 -42 -119 -144 -150 -210 -81 -179 -69 -401 26 -459 72 -44 142 -36 220 23
23 17 47 35 53 39 6 3 -6 -26 -27 -67 -74 -140 -83 -265 -29 -379 16 -34 45
-91 65 -127 19 -36 42 -89 51 -119 14 -48 21 -161 11 -201 -27 -115 -96 -198
-192 -232 -133 -47 -339 -21 -456 58 -98 65 -146 135 -172 251 -35 148 15 273
132 332 22 12 41 29 41 38 0 41 -156 -18 -237 -91 -69 -62 -98 -123 -100 -214
-5 -194 133 -359 357 -428 92 -28 237 -36 330 -17 102 20 105 21 176 54 127
59 233 193 252 319 9 64 6 119 -12 210 -3 14 -44 102 -92 197 -80 161 -86 176
-85 231 1 78 32 161 101 272 55 88 110 214 125 285 13 66 7 153 -15 209 -8 23
-7 26 13 26 40 1 103 37 135 78 18 22 32 45 32 51 0 16 -31 12 -65 -9z m-298
-171 c78 -41 104 -225 53 -374 -37 -111 -107 -165 -208 -160 -95 4 -131 67
-127 221 3 137 33 222 98 281 54 49 128 62 184 32z"/>
<path d="M3370 4274 c-32 -11 -96 -39 -109 -49 -8 -5 -45 -40 -82 -76 -140
-137 -232 -336 -246 -530 -6 -91 7 -173 35 -219 35 -56 98 -94 157 -94 134 0
311 162 420 383 121 247 115 489 -13 564 -32 19 -130 31 -162 21z m67 -156
c50 -41 77 -186 57 -304 -26 -153 -85 -271 -167 -337 -71 -57 -135 -67 -199
-29 -53 31 -73 90 -72 222 1 212 71 377 193 453 63 39 138 37 188 -5z"/>
<path d="M4095 4263 c-171 -51 -224 -235 -115 -398 118 -175 157 -255 155
-315 -5 -118 -73 -189 -187 -195 -97 -5 -153 24 -182 95 -18 47 -12 92 21 142
20 29 23 42 15 50 -27 27 -152 -143 -152 -205 0 -65 122 -128 250 -129 173 -2
271 46 331 162 20 37 24 59 23 130 0 95 -12 124 -122 285 -30 44 -59 91 -64
105 -26 67 -14 164 24 200 53 49 154 48 191 -3 20 -26 23 -61 15 -147 -2 -17
2 -25 12 -25 10 0 23 23 37 65 36 108 36 126 1 155 -16 14 -33 25 -36 26 -4 0
-16 3 -27 5 -53 13 -144 11 -190 -3z"/>
<path d="M4812 4265 c-130 -40 -192 -147 -167 -285 6 -36 49 -113 129 -235
106 -160 98 -298 -22 -368 -44 -26 -136 -30 -191 -9 -87 34 -117 148 -58 225
26 35 23 63 -6 51 -23 -8 -93 -102 -117 -157 -18 -41 -19 -51 -8 -74 18 -37
82 -79 142 -94 69 -17 203 -13 262 7 85 28 132 69 172 147 21 42 26 66 25 122
-1 87 -20 133 -112 269 -75 112 -91 149 -91 213 0 87 39 136 119 149 93 15
138 -37 127 -148 -9 -100 18 -89 54 22 32 99 25 129 -38 156 -48 21 -165 26
-220 9z"/>
<path d="M5606 4255 c-66 -27 -74 -32 -146 -106 -150 -151 -250 -386 -245
-580 2 -85 17 -139 54 -191 125 -177 416 -4 574 342 94 204 95 432 2 515 -51
46 -154 55 -239 20z m88 -120 c111 -53 122 -310 22 -520 -91 -193 -280 -254
-350 -112 -35 73 -40 205 -11 327 3 14 8 36 11 49 11 54 65 153 106 193 75 75
151 96 222 63z"/>
<path d="M6295 4266 c-61 -36 -205 -181 -205 -208 0 -27 30 -10 89 52 53 56
73 71 92 68 22 -3 24 -7 21 -46 -3 -58 -77 -313 -170 -584 -42 -125 -73 -230
-69 -234 4 -4 24 -7 44 -6 29 1 45 9 66 32 15 17 27 37 27 45 0 12 28 90 65
180 5 11 9 22 9 25 1 3 23 49 49 103 26 54 47 100 47 102 0 8 104 172 133 210
78 102 172 175 225 175 59 0 74 -97 37 -242 -26 -98 -106 -341 -130 -395 -8
-17 -15 -34 -15 -38 0 -4 -6 -21 -14 -38 -27 -61 -48 -139 -40 -147 14 -13 35
-15 75 -7 42 9 47 16 118 198 104 264 230 479 345 586 135 127 230 108 203
-41 -4 -27 -28 -101 -52 -165 -89 -240 -122 -383 -110 -479 12 -101 72 -130
171 -82 47 23 204 173 204 195 0 29 -20 24 -52 -11 -38 -42 -114 -94 -138 -94
-9 0 -24 6 -34 13 -24 17 -29 108 -10 186 11 50 76 234 103 296 26 58 61 186
62 225 2 74 0 80 -30 110 -26 26 -33 29 -86 25 -83 -5 -172 -52 -254 -134 -78
-78 -101 -106 -137 -163 -15 -24 -30 -45 -33 -48 -4 -3 -12 -18 -19 -34 -19
-43 -22 -28 -6 34 28 107 37 224 21 272 -5 15 -20 38 -33 52 -22 21 -33 24
-78 21 -29 -2 -75 -14 -102 -26 -86 -40 -236 -205 -298 -326 -9 -18 -18 -33
-20 -33 -2 0 12 60 30 133 18 72 34 141 35 152 4 36 -12 85 -32 95 -23 13 -79
10 -104 -4z"/>
<path d="M7985 4259 c-16 -10 -37 -22 -45 -26 -15 -7 -111 -73 -120 -83 -3 -3
-21 -17 -40 -31 -52 -39 -91 -81 -87 -93 6 -17 26 -13 55 12 55 47 139 112
145 112 4 0 -9 -28 -29 -62 -55 -98 -140 -294 -148 -341 -1 -6 -8 -22 -14 -34
-7 -13 -10 -23 -8 -23 3 0 -1 -18 -9 -41 -21 -58 -30 -123 -30 -211 0 -71 2
-80 27 -104 33 -34 88 -35 149 -3 54 27 209 183 209 209 0 31 -15 24 -62 -26
-81 -86 -141 -110 -173 -68 -50 63 47 413 191 693 30 57 54 109 54 116 0 10
-25 28 -33 24 -1 0 -15 -9 -32 -20z"/>
<path d="M8414 4261 c-44 -20 -120 -89 -169 -154 -22 -29 -25 -41 -16 -50 9
-9 18 -4 39 23 86 110 162 142 162 68 0 -57 -100 -374 -231 -735 -19 -50 -30
-95 -26 -99 13 -14 81 -5 107 14 16 12 37 53 62 118 41 110 39 104 98 229 129
271 318 464 471 479 69 7 73 -24 17 -143 -34 -74 -81 -196 -93 -241 -2 -8 -11
-40 -19 -70 -31 -114 -42 -263 -23 -319 33 -95 141 -98 252 -8 55 45 138 139
143 162 7 29 -33 14 -63 -24 -64 -82 -156 -116 -189 -69 -12 16 -14 42 -11
107 2 47 6 95 8 106 34 142 57 204 134 364 86 178 82 243 -17 256 -137 17
-345 -123 -493 -333 -89 -126 -89 -126 -60 -37 31 96 72 279 69 309 -4 41 -21
56 -66 61 -31 3 -58 -2 -86 -14z"/>
</g>
</svg>
