<svg width="252" height="135" viewBox="0 0 252 135" fill="none" xmlns="http://www.w3.org/2000/svg">
<path d="M46.4237 76.2922C50.0304 77.9373 52.6563 80.2152 54.3014 83.1258C55.9465 86.0365 56.7691 89.042 56.7691 92.1424C56.7691 97.9004 54.7127 102.456 50.5998 105.81C46.5503 109.163 40.4759 110.84 32.3768 110.84C25.8595 110.84 19.9433 109.764 14.6283 107.613C9.37649 105.462 4.53599 102.519 0.106776 98.7863C-0.0830478 98.5332 -0.0197734 98.2801 0.296599 98.027C0.612972 97.7106 0.992619 97.4575 1.43554 97.2677C1.94174 97.0146 2.47957 96.8564 3.04904 96.7931C3.61851 96.6666 4.09307 96.6982 4.47272 96.888C5.67493 98.1535 6.87715 98.9761 8.07937 99.3557C9.34486 99.6721 10.8318 99.6721 12.5402 99.3557C14.1854 99.0394 15.6407 98.4066 16.9062 97.4575C18.2349 96.5084 19.4688 95.0531 20.6077 93.0916C21.8099 91.1301 22.9805 88.5674 24.1195 85.4037C25.3217 82.24 26.5872 78.2537 27.9159 73.4448C29.2447 68.7625 30.8266 64.6497 32.6615 61.1063C34.5598 57.5629 36.8376 54.589 39.4952 52.1846C38.9257 52.058 38.3562 51.9948 37.7868 51.9948C37.2173 51.9948 36.5845 51.9948 35.8885 51.9948C33.8005 51.9948 31.7124 52.3111 29.6243 52.9439C27.5996 53.5133 25.6697 54.3675 23.8347 55.5065C21.9998 56.6454 20.3546 58.0375 18.8993 59.6826C17.444 61.3277 16.2418 63.1944 15.2927 65.2824C15.1661 65.409 15.0079 65.4406 14.8181 65.3773C14.6916 65.2508 14.6599 65.061 14.7232 64.8079C15.4825 62.8463 16.6214 60.9481 18.14 59.1131C19.7219 57.2782 21.5885 55.6647 23.7398 54.2726C25.8911 52.8806 28.2956 51.7733 30.9531 50.9507C33.6739 50.1282 36.5845 49.7169 39.685 49.7169C40.1912 49.7169 40.6658 49.7169 41.1087 49.7169C41.6149 49.7169 42.1211 49.7485 42.6273 49.8118C44.9051 48.2299 47.6259 47.0593 50.7897 46.3C51.106 46.3 51.2642 46.395 51.2642 46.5848C51.2642 46.7746 51.106 46.9328 50.7897 47.0593C49.714 47.3757 48.6383 47.787 47.5627 48.2932C46.487 48.7361 45.4746 49.3056 44.5255 50.0016C47.0565 50.3813 49.2394 51.014 51.0744 51.8998C52.9726 52.7224 54.5229 53.7664 55.7251 55.0319C56.9273 56.2341 57.8131 57.5629 58.3826 59.0182C58.9521 60.4103 59.2368 61.8656 59.2368 63.3842C59.2368 65.2824 58.8572 67.0225 58.0979 68.6043C57.4019 70.1862 56.4527 71.5466 55.2505 72.6855C54.0483 73.8245 52.6563 74.7103 51.0744 75.3431C49.5558 75.9758 48.0056 76.2922 46.4237 76.2922ZM34.5598 109.416C37.4071 109.416 39.9381 109.037 42.1527 108.277C44.4306 107.455 46.3288 106.379 47.8474 105.05C49.4293 103.658 50.5998 102.045 51.3591 100.21C52.1817 98.375 52.593 96.3818 52.593 94.2305C52.593 85.0557 47.8158 79.2028 38.2613 76.6718C38.0715 76.482 38.1031 76.2289 38.3562 75.9125C38.6093 75.5962 38.9573 75.3114 39.4003 75.0583C39.8432 74.8052 40.3494 74.6154 40.9188 74.4889C41.4883 74.3623 41.9629 74.3307 42.3425 74.3939C42.912 74.647 43.4182 74.8369 43.8611 74.9634C44.3673 75.0267 45.0001 75.0583 45.7593 75.0583C46.8983 75.0583 48.0056 74.8369 49.0813 74.3939C50.2202 73.8878 51.201 73.1917 52.0235 72.3059C52.9094 71.42 53.6054 70.4077 54.1116 69.2687C54.6811 68.0665 54.9658 66.7377 54.9658 65.2824C54.9658 62.2452 53.8585 59.5561 51.6439 57.2149C49.4925 54.8105 46.139 53.197 41.5832 52.3744C39.4952 54.5257 37.6286 57.1833 35.9834 60.347C34.3383 63.5107 32.9463 67.3072 31.8073 71.7364C30.1622 77.7475 28.4538 82.6513 26.6821 86.4477C24.9737 90.1809 23.202 93.1232 21.367 95.2745C19.5321 97.4259 17.6338 98.9128 15.6723 99.7354C13.7108 100.558 11.7177 101.001 9.69287 101.064C12.9199 103.469 16.6847 105.462 20.9874 107.044C25.29 108.625 29.8142 109.416 34.5598 109.416Z" fill="black"/>
<path d="M90.8441 41.6765C90.8441 40.9985 90.6251 40.0512 90.8441 42.3544C90.9123 43.0715 90.8441 40.9985 90.8441 43.0324C90.1662 43.0324 90.1662 43.7103 89.4883 45.7441C88.3963 46.6801 87.3038 49.1947 86.2243 50.4897C84.6766 52.3465 83.1558 54.4834 81.702 56.6454C79.2343 60.2521 76.9248 64.3017 74.7734 68.7942C72.6854 73.2866 70.8504 77.7791 69.2686 82.2716C67.75 86.7008 66.5477 90.9086 65.6619 94.8949C64.7761 98.8179 64.3331 102.013 64.3331 104.481C64.3331 106.379 64.871 107.328 65.9466 107.328C66.7059 107.328 67.4336 107.012 68.1296 106.379C68.8889 105.746 69.7431 104.797 70.6922 103.532C70.8821 103.405 71.0402 103.437 71.1668 103.627C71.3566 103.753 71.4199 103.943 71.3566 104.196C70.0911 106.158 68.6991 107.771 67.1805 109.037C65.6619 110.239 64.3648 110.84 63.2891 110.84C62.4665 110.84 61.8022 110.524 61.296 109.891C60.7898 109.195 60.5367 108.277 60.5367 107.139C60.5367 105.367 60.853 103.089 61.4858 100.305C62.1185 97.4575 63.0044 94.2938 64.1433 90.8137C65.2823 87.3336 66.6427 83.6953 68.2245 79.8988C69.8697 76.0391 71.6414 72.2426 73.5396 68.5094C75.4378 64.7762 77.431 61.2012 79.519 57.7844C81.6704 54.3675 82.5281 52.3111 84.7427 49.7169C87.0206 47.1226 88.8103 44.3883 88.8103 44.3883L90.8441 41.6765Z" fill="black"/>
<path d="M85.7632 86.5427C87.4716 86.5427 88.7371 87.1121 89.5597 88.2511C90.3822 89.39 90.7935 90.877 90.7935 92.7119C90.7935 94.8633 90.3822 97.0146 89.5597 99.1659C88.7371 101.317 87.6931 103.279 86.4276 105.05C85.1621 106.759 83.77 108.151 82.2514 109.227C80.7961 110.302 79.4357 110.84 78.1702 110.84C76.6517 110.84 75.4494 110.239 74.5636 109.037C73.6778 107.835 73.2348 106.126 73.2348 103.912C73.2348 102.14 73.5828 100.242 74.2789 98.2168C74.9749 96.192 75.8924 94.3254 77.0313 92.617C78.2335 90.8453 79.5623 89.39 81.0176 88.2511C82.5362 87.1121 84.118 86.5427 85.7632 86.5427ZM80.0685 107.898C81.0176 107.898 81.9351 107.581 82.8209 106.949C83.77 106.253 84.5926 105.367 85.2886 104.291C85.9846 103.152 86.5225 101.855 86.9021 100.4C87.3451 98.9445 87.5665 97.4259 87.5665 95.844C87.5665 93.9458 87.2501 92.4588 86.6174 91.3832C85.9846 90.2442 84.9406 89.6747 83.4853 89.6747C82.5362 89.6747 81.6187 90.0228 80.7329 90.7188C79.847 91.3515 79.0561 92.2374 78.3601 93.3763C77.7273 94.452 77.2211 95.7491 76.8415 97.2677C76.4618 98.723 76.272 100.273 76.272 101.918C76.272 105.905 77.5375 107.898 80.0685 107.898Z" fill="black"/>
<path d="M104.898 86.5427C106.164 86.5427 107.208 86.7641 108.03 87.207C108.916 87.5867 109.359 88.0296 109.359 88.5358C109.359 89.2318 109.201 90.0228 108.885 90.9086C108.631 91.7944 108.347 92.5221 108.03 93.0916C107.904 93.2181 107.714 93.2498 107.461 93.1865C107.271 93.0599 107.208 92.9017 107.271 92.7119C107.461 92.269 107.587 91.7628 107.651 91.1933C107.714 90.6239 107.682 90.1177 107.556 89.6747C107.239 88.4093 106.354 87.7765 104.898 87.7765C103.823 87.7765 102.937 88.0929 102.241 88.7256C101.608 89.3584 101.292 90.3075 101.292 91.573C101.292 92.5854 101.545 93.5661 102.051 94.5152C102.62 95.4011 103.222 96.3186 103.854 97.2677C104.55 98.1535 105.151 99.1343 105.658 100.21C106.227 101.222 106.512 102.361 106.512 103.627C106.512 105.652 105.784 107.36 104.329 108.752C102.937 110.144 100.817 110.84 97.9697 110.84C96.0082 110.84 94.3947 110.492 93.1292 109.796C91.8637 109.1 91.231 108.372 91.231 107.613C91.231 107.044 91.579 106.189 92.275 105.05C92.971 103.912 93.762 102.994 94.6478 102.298C94.8376 102.171 94.9958 102.203 95.1224 102.393C95.3122 102.583 95.3438 102.773 95.2173 102.962C94.7111 103.469 94.3315 104.07 94.0784 104.766C93.8253 105.398 93.762 105.968 93.8885 106.474C94.0784 107.55 94.5529 108.372 95.3122 108.942C96.1348 109.448 97.0839 109.701 98.1596 109.701C99.8047 109.701 101.07 109.258 101.956 108.372C102.905 107.487 103.38 106.348 103.38 104.956C103.38 103.753 103.095 102.646 102.526 101.634C101.956 100.558 101.323 99.5456 100.627 98.5965C99.9945 97.5841 99.3934 96.6033 98.8239 95.6542C98.3177 94.6418 98.0647 93.5661 98.0647 92.4272C98.0647 90.782 98.6658 89.39 99.868 88.2511C101.133 87.1121 102.81 86.5427 104.898 86.5427Z" fill="black"/>
<path d="M122.787 86.5427C124.052 86.5427 125.096 86.7641 125.919 87.207C126.805 87.5867 127.248 88.0296 127.248 88.5358C127.248 89.2318 127.09 90.0228 126.773 90.9086C126.52 91.7944 126.235 92.5221 125.919 93.0916C125.792 93.2181 125.603 93.2498 125.35 93.1865C125.16 93.0599 125.096 92.9017 125.16 92.7119C125.35 92.269 125.476 91.7628 125.539 91.1933C125.603 90.6239 125.571 90.1177 125.444 89.6747C125.128 88.4093 124.242 87.7765 122.787 87.7765C121.711 87.7765 120.825 88.0929 120.129 88.7256C119.497 89.3584 119.18 90.3075 119.18 91.573C119.18 92.5854 119.433 93.5661 119.94 94.5152C120.509 95.4011 121.11 96.3186 121.743 97.2677C122.439 98.1535 123.04 99.1343 123.546 100.21C124.116 101.222 124.4 102.361 124.4 103.627C124.4 105.652 123.673 107.36 122.217 108.752C120.825 110.144 118.706 110.84 115.858 110.84C113.897 110.84 112.283 110.492 111.018 109.796C109.752 109.1 109.12 108.372 109.12 107.613C109.12 107.044 109.468 106.189 110.164 105.05C110.86 103.912 111.651 102.994 112.536 102.298C112.726 102.171 112.884 102.203 113.011 102.393C113.201 102.583 113.232 102.773 113.106 102.962C112.6 103.469 112.22 104.07 111.967 104.766C111.714 105.398 111.651 105.968 111.777 106.474C111.967 107.55 112.442 108.372 113.201 108.942C114.023 109.448 114.973 109.701 116.048 109.701C117.693 109.701 118.959 109.258 119.845 108.372C120.794 107.487 121.268 106.348 121.268 104.956C121.268 103.753 120.984 102.646 120.414 101.634C119.845 100.558 119.212 99.5456 118.516 98.5965C117.883 97.5841 117.282 96.6033 116.713 95.6542C116.206 94.6418 115.953 93.5661 115.953 92.4272C115.953 90.782 116.554 89.39 117.757 88.2511C119.022 87.1121 120.699 86.5427 122.787 86.5427Z" fill="black"/>
<path d="M142.859 86.5427C144.567 86.5427 145.832 87.1121 146.655 88.2511C147.478 89.39 147.889 90.877 147.889 92.7119C147.889 94.8633 147.478 97.0146 146.655 99.1659C145.832 101.317 144.788 103.279 143.523 105.05C142.257 106.759 140.865 108.151 139.347 109.227C137.892 110.302 136.531 110.84 135.266 110.84C133.747 110.84 132.545 110.239 131.659 109.037C130.773 107.835 130.33 106.126 130.33 103.912C130.33 102.14 130.678 100.242 131.374 98.2168C132.07 96.192 132.988 94.3254 134.127 92.617C135.329 90.8453 136.658 89.39 138.113 88.2511C139.632 87.1121 141.213 86.5427 142.859 86.5427ZM137.164 107.898C138.113 107.898 139.03 107.581 139.916 106.949C140.865 106.253 141.688 105.367 142.384 104.291C143.08 103.152 143.618 101.855 143.998 100.4C144.44 98.9445 144.662 97.4259 144.662 95.844C144.662 93.9458 144.346 92.4588 143.713 91.3832C143.08 90.2442 142.036 89.6747 140.581 89.6747C139.632 89.6747 138.714 90.0228 137.828 90.7188C136.942 91.3515 136.151 92.2374 135.455 93.3763C134.823 94.452 134.317 95.7491 133.937 97.2677C133.557 98.723 133.367 100.273 133.367 101.918C133.367 105.905 134.633 107.898 137.164 107.898Z" fill="black"/>
<path d="M182.59 90.9086C182.59 89.5798 182.115 88.9155 181.166 88.9155C180.217 88.9155 179.173 89.39 178.034 90.3391C176.895 91.2882 175.693 92.6486 174.427 94.4203C173.225 96.192 171.991 98.375 170.726 100.969C169.523 103.5 168.353 106.379 167.214 109.606C167.087 109.986 166.739 110.302 166.17 110.555C165.664 110.745 165.157 110.84 164.651 110.84C163.892 110.84 163.607 110.555 163.797 109.986C164.177 108.847 164.683 107.423 165.316 105.715C166.012 104.006 166.644 102.266 167.214 100.495C167.847 98.6597 168.384 96.9513 168.827 95.3695C169.27 93.7876 169.492 92.5537 169.492 91.6679C169.492 89.8962 168.954 89.0104 167.878 89.0104C166.233 89.0104 164.145 90.782 161.614 94.3254C159.083 97.8688 156.679 102.962 154.401 109.606C154.274 109.986 153.989 110.302 153.547 110.555C153.104 110.745 152.629 110.84 152.123 110.84C151.806 110.84 151.553 110.777 151.364 110.65C151.174 110.524 151.142 110.302 151.269 109.986C151.775 108.594 152.313 107.075 152.882 105.43C153.452 103.722 154.021 102.013 154.591 100.305C155.16 98.5965 155.666 96.9197 156.109 95.2745C156.615 93.6294 157.027 92.0792 157.343 90.6239C157.659 89.4849 157.501 88.9155 156.868 88.9155C156.362 88.9155 155.761 89.2635 155.065 89.9595C154.369 90.6555 153.673 91.4781 152.977 92.4272C152.787 92.5537 152.597 92.5537 152.408 92.4272C152.218 92.2374 152.186 92.0475 152.313 91.8577C153.262 90.5289 154.306 89.3267 155.445 88.2511C156.647 87.1121 157.849 86.5427 159.051 86.5427C159.874 86.5427 160.38 86.859 160.57 87.4918C160.823 88.1245 160.855 88.8838 160.665 89.7697C160.349 91.1617 160.032 92.4588 159.716 93.661C159.463 94.8 159.115 95.9706 158.672 97.1728C160.317 94.009 162.12 91.4464 164.082 89.4849C166.107 87.5234 168.1 86.5427 170.061 86.5427C170.82 86.5427 171.422 86.8274 171.864 87.3969C172.371 87.9663 172.624 88.7573 172.624 89.7697C172.624 91.0984 172.497 92.4272 172.244 93.7559C171.991 95.0847 171.611 96.4451 171.105 97.8372C173.003 94.2305 175.028 91.4464 177.18 89.4849C179.394 87.5234 181.577 86.5427 183.728 86.5427C184.425 86.5427 184.994 86.7958 185.437 87.3019C185.88 87.8081 186.101 88.4725 186.101 89.2951C186.101 90.434 185.848 91.6995 185.342 93.0916C184.899 94.4203 184.393 95.8124 183.823 97.2677C183.254 98.723 182.716 100.178 182.21 101.634C181.767 103.026 181.546 104.354 181.546 105.62C181.546 107.202 182.02 107.993 182.969 107.993C183.982 107.993 185.374 106.949 187.145 104.861C187.272 104.734 187.398 104.766 187.525 104.956C187.715 105.145 187.746 105.367 187.62 105.62C187.24 106.126 186.766 106.696 186.196 107.328C185.627 107.898 185.026 108.467 184.393 109.037C183.823 109.543 183.191 109.986 182.495 110.366C181.799 110.682 181.134 110.84 180.501 110.84C179.046 110.84 178.319 109.638 178.319 107.233C178.319 105.715 178.54 104.196 178.983 102.678C179.426 101.096 179.9 99.6088 180.407 98.2168C180.976 96.7615 181.482 95.4011 181.925 94.1356C182.368 92.8701 182.59 91.7944 182.59 90.9086Z" fill="black"/>
<path d="M192.943 93.1865C192.753 93.313 192.563 93.2814 192.374 93.0916C192.247 92.8385 192.247 92.617 192.374 92.4272C193.259 91.5413 194.462 90.529 195.98 89.39C197.499 88.2511 199.017 87.302 200.536 86.5427C201.042 86.5427 201.295 86.8274 201.295 87.3969C200.473 88.8522 199.65 90.434 198.828 92.1424C198.068 93.8509 197.372 95.5593 196.74 97.2677C196.17 98.9128 195.696 100.526 195.316 102.108C194.936 103.627 194.746 104.892 194.746 105.905C194.746 107.233 195.189 107.898 196.075 107.898C196.771 107.898 197.436 107.613 198.068 107.044C198.764 106.411 199.555 105.588 200.441 104.576C200.568 104.449 200.726 104.481 200.916 104.671C201.105 104.861 201.137 105.082 201.011 105.335C199.872 106.727 198.638 107.993 197.309 109.132C196.044 110.271 194.841 110.84 193.702 110.84C192.057 110.84 191.235 109.796 191.235 107.708C191.235 106.506 191.424 105.082 191.804 103.437C192.247 101.729 192.785 100.02 193.418 98.3117C194.05 96.6033 194.746 94.9582 195.506 93.3763C196.328 91.7944 197.119 90.434 197.878 89.2951C197.182 89.8013 196.297 90.4657 195.221 91.2882C194.209 92.0475 193.449 92.6803 192.943 93.1865ZM201.485 82.4615C201.295 82.6513 201.105 82.6829 200.916 82.5564C200.789 82.3665 200.694 82.1451 200.631 81.892C200.568 81.5756 200.536 81.2276 200.536 80.848C200.536 80.4683 200.631 80.1519 200.821 79.8988C202.466 77.621 204.775 75.1849 207.749 72.5906C207.939 72.5274 208.129 72.5906 208.319 72.7805C208.509 72.907 208.54 73.0335 208.414 73.1601C207.085 74.3623 205.819 75.8176 204.617 77.526C203.415 79.1712 202.371 80.8163 201.485 82.4615Z" fill="black"/>
<path d="M228.954 104.766C229.144 104.639 229.334 104.639 229.523 104.766C229.713 104.892 229.777 105.082 229.713 105.335C228.638 106.791 227.435 108.088 226.107 109.227C224.841 110.302 223.639 110.84 222.5 110.84C220.538 110.84 219.558 109.575 219.558 107.044C219.558 104.892 219.937 102.519 220.697 99.9252C221.456 97.2677 222.5 94.6102 223.829 91.9526C224.082 91.5097 224.208 91.0668 224.208 90.6239C224.208 89.9278 223.892 89.5798 223.259 89.5798C220.918 89.5798 218.324 91.1933 215.476 94.4203C212.692 97.6473 210.098 102.709 207.694 109.606C207.567 109.986 207.219 110.302 206.65 110.555C206.08 110.745 205.542 110.84 205.036 110.84C204.34 110.84 204.087 110.555 204.277 109.986C205.353 107.265 206.46 104.196 207.599 100.779C208.801 97.3626 209.845 93.9774 210.731 90.6239C210.984 89.4216 210.763 88.8205 210.066 88.8205C209.434 88.8205 208.801 89.1369 208.168 89.7697C207.536 90.4024 206.871 91.225 206.175 92.2374C206.049 92.3639 205.89 92.3323 205.701 92.1424C205.574 91.9526 205.542 91.7628 205.606 91.573C206.302 90.4973 207.251 89.39 208.453 88.2511C209.655 87.1121 210.952 86.5427 212.344 86.5427C213.926 86.5427 214.464 87.6183 213.958 89.7697C213.705 91.1617 213.357 92.6486 212.914 94.2305C212.471 95.7491 211.996 97.2677 211.49 98.7863C212.376 97.0779 213.42 95.4644 214.622 93.9458C215.824 92.4272 217.058 91.1301 218.324 90.0544C219.653 88.9787 220.95 88.1245 222.215 87.4918C223.544 86.859 224.778 86.5427 225.917 86.5427C226.676 86.5427 227.246 86.7325 227.625 87.1121C228.068 87.4918 228.29 87.9347 228.29 88.4409C228.29 89.2635 228.1 90.086 227.72 90.9086C226.391 93.313 225.252 95.844 224.303 98.5015C223.417 101.096 222.975 103.5 222.975 105.715C222.975 107.297 223.481 108.088 224.493 108.088C225.822 108.088 227.309 106.98 228.954 104.766Z" fill="black"/>
<path d="M251.26 85.2139C251.45 85.0873 251.639 85.119 251.829 85.3088C252.019 85.4353 252.051 85.6252 251.924 85.8783C251.418 86.6376 250.785 87.3336 250.026 87.9663C249.267 88.5358 248.317 88.7889 247.178 88.7256C247.748 89.6747 248.033 90.9086 248.033 92.4272C248.033 93.8825 247.811 95.2113 247.368 96.4135C246.925 97.6157 246.419 98.7546 245.85 99.8303C245.28 100.906 244.679 101.918 244.046 102.867C243.477 103.817 243.002 104.797 242.623 105.81C242.306 106.822 242.148 107.866 242.148 108.942C242.211 109.954 242.591 111.093 243.287 112.359C243.857 113.434 244.363 114.383 244.806 115.206C245.312 116.092 245.723 116.914 246.04 117.674C246.419 118.496 246.672 119.319 246.799 120.141C246.989 120.964 247.084 121.85 247.084 122.799C247.084 124.318 246.767 125.741 246.134 127.07C245.502 128.462 244.584 129.664 243.382 130.677C242.18 131.752 240.724 132.575 239.016 133.144C237.308 133.777 235.378 134.093 233.226 134.093C231.012 134.093 229.019 133.777 227.247 133.144C225.475 132.512 223.988 131.657 222.786 130.582C221.521 129.569 220.572 128.367 219.939 126.975C219.306 125.646 218.99 124.254 218.99 122.799C218.99 120.901 219.686 119.224 221.078 117.769C222.407 116.377 224.336 115.333 226.867 114.637C227.184 114.637 227.405 114.731 227.532 114.921C227.595 115.174 227.532 115.396 227.342 115.586C226.013 116.092 224.937 116.851 224.115 117.864C223.292 118.876 222.881 120.236 222.881 121.945C222.881 125.172 223.988 127.766 226.203 129.728C228.418 131.689 231.328 132.67 234.935 132.67C237.972 132.67 240.218 131.879 241.674 130.297C243.129 128.778 243.857 126.785 243.857 124.318C243.857 122.862 243.635 121.565 243.192 120.426C242.749 119.287 242.085 117.99 241.199 116.535C239.997 114.51 239.459 112.58 239.586 110.745C239.775 108.847 240.44 106.885 241.579 104.861C241.705 104.608 241.832 104.386 241.958 104.196C242.148 103.943 242.306 103.658 242.433 103.342C241.737 104.101 240.914 104.766 239.965 105.335C239.079 105.905 238.32 106.189 237.687 106.189C234.587 106.189 233.037 104.165 233.037 100.115C233.037 98.7863 233.29 97.331 233.796 95.7491C234.302 94.1672 234.998 92.7119 235.884 91.3832C236.833 89.9911 237.909 88.8522 239.111 87.9663C240.376 87.0805 241.769 86.6376 243.287 86.6376C245.502 86.6376 247.21 86.5743 248.412 86.4477C249.615 86.2579 250.564 85.8466 251.26 85.2139ZM243.667 101.064C244.046 100.178 244.363 99.2608 244.616 98.3117C244.869 97.3626 244.996 96.4135 244.996 95.4644C244.996 93.6294 244.679 92.2057 244.046 91.1933C243.477 90.1177 242.528 89.5798 241.199 89.5798C239.68 89.5798 238.383 90.3391 237.308 91.8577C236.295 93.3763 235.789 95.5276 235.789 98.3117C235.789 100.147 236.074 101.475 236.643 102.298C237.276 103.121 238.194 103.532 239.396 103.532C240.092 103.532 240.851 103.31 241.674 102.867C242.496 102.425 243.161 101.823 243.667 101.064Z" fill="black"/>
<path d="M70.2804 13.106C68.2466 13.106 72.7199 6.42353 73.3979 5.74559C76.7875 3.03382 77.4654 3.44066 78.1435 3.03382C80.1774 2.35588 81.5332 1.13559 81.5332 1.67794C81.5332 2.22029 81.5332 2.35588 81.5332 2.35588C81.5332 2.58186 81.5332 3.305 81.5332 4.38971C81.5332 5.47441 81.9851 7.55343 82.2111 8.45735L82.889 7.77941C83.567 7.77941 81.5332 6.42353 86.2788 3.03382C89.6685 1.67794 90.3464 1 91.0243 1C91.7023 1 91.0243 1.67794 91.0243 4.38971C91.0243 7.10147 91.0243 8.45735 91.0243 7.10147C91.0243 6.01677 92.8322 5.29356 93.7361 5.06755C97.8038 4.38974 96.4479 4.38971 99.1596 5.06755C99.8376 5.06763 101.871 6.42343 102.549 7.10138C103.092 7.64373 103.679 8.68324 103.905 9.1352C103.905 9.81314 106.617 11.169 103.905 10.4911C101.736 9.94874 100.29 10.7171 99.8376 11.169C99.2952 12.2537 99.8376 11.847 99.1596 17.9484C98.5738 22.6349 99.8376 25.4058 94.4141 27.4396C92.3802 28.7955 92.3802 29.4734 91.7023 30.1514C91.0243 30.8293 91.0243 33.0918 91.0243 32.8632C91.0243 32.5774 93.0582 30.1514 97.8038 30.8294C102.549 31.5073 102.549 34.897 103.227 35.575C103.905 36.2529 102.549 43.0323 102.549 41.6764C102.549 40.5917 99.3856 36.7049 97.8038 34.897C95.7699 32.8632 93.7361 32.8632 92.3802 32.8632C91.0243 32.6372 88.9905 34.3886 91.0243 34.897C93.7361 35.575 90.8442 43.0324 88.3126 46.422C87.6348 47.3296 87.3764 47.6616 86.7765 48.4559M89.6686 34.2191C89.6686 34.2191 88.419 44.5258 88.9904 38.9647C89.269 36.2529 87.6348 34.897 87.6348 34.897C87.6348 34.897 83.5669 45.7441 86.2789 39.6427C87.0002 38.0197 84.2451 35.575 84.2451 35.575C84.2451 35.575 74.0757 45.0661 79.4992 41.6764C84.9228 38.2868 83.1603 35.4393 81.5333 34.897M73.3979 25.5012C73.3979 26.2744 72.3113 25.1762 74.0759 28.1177C76.1095 31.5074 78.8215 33.5412 80.1774 34.2191C81.5333 34.8971 84.2451 34.8971 85.6009 34.897C86.6856 34.897 88.7647 33.9931 89.6686 33.5412C89.0106 33.5412 90.7501 28.5696 91.7022 26.0838C91.7022 26.0838 92.6061 22.4681 93.0581 20.6603C93.6004 19.0332 93.3749 14.1978 89.6683 10.4912C88.3125 9.1353 88.4482 8.59292 83.5669 9.1352C77.4652 9.81305 76.7875 6.42353 75.4318 7.10147C74.0762 7.77941 79.4995 15.9147 80.1772 15.9147C80.8549 15.9147 78.1435 15.2368 76.1095 13.8809C74.0756 12.525 70.0082 13.2029 68.6524 13.2029C67.2966 13.2029 65.9406 15.2368 66.6186 15.2368C67.2965 15.2368 69.3303 18.6265 70.0082 19.9824C70.5504 21.0671 70.2342 22.6941 70.0083 23.3721C70.0083 24.276 71.093 25.9482 75.4318 25.4059C79.7706 24.8635 85.375 31.0554 87.6348 34.2191" stroke="black" stroke-linecap="round"/>
<path d="M73.9245 52.2598C72.6267 50.7318 71.5891 49.2258 70.9219 47.9799C71.0001 47.9978 71.0792 48.0152 71.1587 48.0324C71.3015 48.0632 71.4469 48.0937 71.5944 48.1247C73.2027 48.4621 75.0535 48.8503 76.2627 50.274C76.8978 51.0218 77.2698 52.1785 77.4617 53.5193C77.6518 54.847 77.6562 56.2846 77.6113 57.533C77.6003 57.8387 77.5864 58.1318 77.5717 58.4084C77.457 58.1803 77.3328 57.9266 77.1972 57.6494C76.4533 56.1283 75.4251 54.0268 73.9245 52.2598Z" stroke="black"/>
</svg>
